<svg width="16" height="16" viewBox="0 0 16 16" fill="none" xmlns="http://www.w3.org/2000/svg">
<path fill-rule="evenodd" clip-rule="evenodd" d="M8.39545 15.5053L8.38811 15.5067L8.34078 15.53L8.32745 15.5327L8.31811 15.53L8.27078 15.5067C8.26367 15.5045 8.25834 15.5056 8.25478 15.51L8.25211 15.5167L8.24078 15.802L8.24411 15.8153L8.25078 15.824L8.32011 15.8733L8.33011 15.876L8.33811 15.8733L8.40745 15.824L8.41545 15.8133L8.41811 15.802L8.40678 15.5173C8.405 15.5102 8.40123 15.5062 8.39545 15.5053ZM8.57211 15.43L8.56345 15.4313L8.44011 15.4933L8.43345 15.5L8.43145 15.5073L8.44345 15.794L8.44678 15.802L8.45211 15.8067L8.58611 15.8687C8.59456 15.8709 8.601 15.8691 8.60545 15.8633L8.60811 15.854L8.58545 15.4447C8.58323 15.4367 8.57878 15.4318 8.57211 15.43ZM8.09545 15.4313C8.09251 15.4296 8.089 15.429 8.08565 15.4297C8.08229 15.4305 8.07936 15.4325 8.07745 15.4353L8.07345 15.4447L8.05078 15.854C8.05123 15.862 8.055 15.8673 8.06211 15.87L8.07211 15.8687L8.20611 15.8067L8.21278 15.8013L8.21545 15.794L8.22678 15.5073L8.22478 15.4993L8.21811 15.4927L8.09545 15.4313Z" fill="#B1B5BE"/>
<path fill-rule="evenodd" clip-rule="evenodd" d="M6.45733 1.67468C6.58765 1.69092 6.71349 1.73267 6.82767 1.79754C6.94185 1.86241 7.04214 1.94914 7.1228 2.05277C7.20346 2.1564 7.26293 2.27491 7.29779 2.40152C7.33266 2.52813 7.34224 2.66036 7.326 2.79068L7.09133 4.66668H9.742L10.008 2.54268C10.0409 2.2795 10.177 2.04016 10.3863 1.87731C10.5957 1.71447 10.8611 1.64146 11.1243 1.67435C11.3875 1.70723 11.6269 1.84332 11.7897 2.05268C11.9525 2.26203 12.0256 2.5275 11.9927 2.79068L11.758 4.66668H13.3333C13.5985 4.66668 13.8529 4.77204 14.0404 4.95957C14.228 5.14711 14.3333 5.40146 14.3333 5.66668C14.3333 5.9319 14.228 6.18625 14.0404 6.37379C13.8529 6.56132 13.5985 6.66668 13.3333 6.66668H11.508L11.1747 9.33335H13C13.2652 9.33335 13.5196 9.4387 13.7071 9.62624C13.8946 9.81378 14 10.0681 14 10.3333C14 10.5986 13.8946 10.8529 13.7071 11.0405C13.5196 11.228 13.2652 11.3333 13 11.3333H10.9247L10.6593 13.4573C10.6264 13.7205 10.4904 13.9599 10.281 14.1227C10.0717 14.2856 9.80618 14.3586 9.543 14.3257C9.27982 14.2928 9.04048 14.1567 8.87763 13.9474C8.71479 13.738 8.64178 13.4725 8.67467 13.2093L8.90867 11.3333H6.25867L5.99333 13.4573C5.96045 13.7205 5.82436 13.9599 5.615 14.1227C5.40565 14.2856 5.14018 14.3586 4.877 14.3257C4.61382 14.2928 4.37448 14.1567 4.21163 13.9474C4.04879 13.738 3.97578 13.4725 4.00867 13.2093L4.242 11.3333H3C2.73478 11.3333 2.48043 11.228 2.29289 11.0405C2.10536 10.8529 2 10.5986 2 10.3333C2 10.0681 2.10536 9.81378 2.29289 9.62624C2.48043 9.4387 2.73478 9.33335 3 9.33335H4.492L4.82533 6.66668H3.33333C3.06812 6.66668 2.81376 6.56132 2.62623 6.37379C2.43869 6.18625 2.33333 5.9319 2.33333 5.66668C2.33333 5.40146 2.43869 5.14711 2.62623 4.95957C2.81376 4.77204 3.06812 4.66668 3.33333 4.66668H5.07533L5.34133 2.54268C5.35749 2.41231 5.39918 2.28639 5.46402 2.17214C5.52886 2.05788 5.61557 1.95752 5.71921 1.87678C5.82285 1.79605 5.94138 1.73653 6.06803 1.70163C6.19468 1.66672 6.32697 1.65711 6.45733 1.67335V1.67468ZM9.16 9.33335L9.49333 6.66668H6.842L6.50867 9.33335H9.16Z" fill="#B1B5BE"/>
</svg>
