<svg width="40" height="40" viewBox="0 0 40 40" fill="none" xmlns="http://www.w3.org/2000/svg">
<path d="M20.0002 0.00266685C18.7564 -0.0270748 17.5193 0.192208 16.3616 0.647617C15.2038 1.10303 14.1488 1.78536 13.2587 2.65449C12.3685 3.52362 11.6611 4.56199 11.1782 5.70851C10.6952 6.85504 10.4464 8.08657 10.4464 9.33067C10.4464 10.5748 10.6952 11.8063 11.1782 12.9528C11.6611 14.0993 12.3685 15.1377 13.2587 16.0068C14.1488 16.876 15.2038 17.5583 16.3616 18.0137C17.5193 18.4691 18.7564 18.6884 20.0002 18.6587C21.2439 18.6884 22.481 18.4691 23.6388 18.0137C24.7965 17.5583 25.8515 16.876 26.7417 16.0068C27.6318 15.1377 28.3392 14.0993 28.8221 12.9528C29.3051 11.8063 29.5539 10.5748 29.5539 9.33067C29.5539 8.08657 29.3051 6.85504 28.8221 5.70851C28.3392 4.56199 27.6318 3.52362 26.7417 2.65449C25.8515 1.78536 24.7965 1.10303 23.6388 0.647617C22.481 0.192208 21.2439 -0.0270748 20.0002 0.00266685ZM14.6668 23.9867C12.1915 23.9867 9.81751 24.97 8.06717 26.7203C6.31683 28.4707 5.3335 30.8446 5.3335 33.32V39.9787H34.6668V33.32C34.6668 30.8446 33.6835 28.4707 31.9332 26.7203C30.1828 24.97 27.8089 23.9867 25.3335 23.9867H14.6668Z" fill="#A8A8A8"/>
</svg>
