<svg width="60" height="60" viewBox="0 0 60 60" fill="none" xmlns="http://www.w3.org/2000/svg">
<path d="M49 52.5L33.25 36.75C32 37.75 30.5625 38.5417 28.9375 39.125C27.3125 39.7083 25.5833 40 23.75 40C19.2083 40 15.365 38.4267 12.22 35.28C9.075 32.1333 7.50167 28.29 7.5 23.75C7.49833 19.21 9.07167 15.3667 12.22 12.22C15.3683 9.07333 19.2117 7.5 23.75 7.5C28.2883 7.5 32.1325 9.07333 35.2825 12.22C38.4325 15.3667 40.005 19.21 40 23.75C40 25.5833 39.7083 27.3125 39.125 28.9375C38.5417 30.5625 37.75 32 36.75 33.25L52.5 49L49 52.5ZM23.75 35C26.875 35 29.5317 33.9067 31.72 31.72C33.9083 29.5333 35.0017 26.8767 35 23.75C34.9983 20.6233 33.905 17.9675 31.72 15.7825C29.535 13.5975 26.8783 12.5033 23.75 12.5C20.6217 12.4967 17.9658 13.5908 15.7825 15.7825C13.5992 17.9742 12.505 20.63 12.5 23.75C12.495 26.87 13.5892 29.5267 15.7825 31.72C17.9758 33.9133 20.6317 35.0067 23.75 35Z" fill="#515151"/>
</svg>
